<svg xmlns="http://www.w3.org/2000/svg" xmlns:xlink="http://www.w3.org/1999/xlink" width="516" zoomAndPan="magnify" viewBox="0 0 386.88 149.999998" height="200" preserveAspectRatio="xMidYMid meet" version="1.0"><defs><g/><clipPath id="d1cd302362"><path d="M 0 0.375 L 125.210938 0.375 L 125.210938 149.976562 L 0 149.976562 Z M 0 0.375 " clip-rule="nonzero"/></clipPath></defs><g clip-path="url(#d1cd302362)"><path fill="#ffffff" d="M 44.160156 75.164062 L 34.15625 65.15625 L 20.308594 51.332031 L 50.777344 20.859375 L 84.773438 54.855469 L 94.9375 65.023438 L 105.105469 54.855469 L 115.246094 44.691406 L 125.410156 34.550781 L 91.253906 0.394531 L 81.113281 10.558594 L 105.105469 34.550781 L 94.9375 44.691406 L 50.777344 0.53125 L 40.636719 10.695312 L 0 51.332031 L 10.164062 61.472656 L 23.855469 75.164062 L 10.164062 88.851562 L 0 99.019531 L 10.164062 109.183594 L 40.636719 139.632812 L 50.777344 149.796875 L 94.9375 105.636719 L 105.105469 115.800781 L 81.113281 139.789062 L 91.253906 149.953125 L 115.246094 125.941406 L 125.410156 115.800781 L 115.246094 105.636719 L 105.105469 95.492188 L 94.9375 85.328125 L 50.777344 129.488281 L 20.308594 99.019531 L 34.15625 85.167969 Z M 84.773438 75.164062 L 74.632812 85.328125 L 50.777344 109.183594 L 40.636719 99.019531 L 64.46875 75.164062 L 40.636719 51.332031 L 50.777344 41.167969 Z M 84.773438 75.164062 " fill-opacity="1" fill-rule="evenodd"/></g><g fill="#ffffff" fill-opacity="1"><g transform="translate(133.223402, 89.414276)"><g><path d="M 32.746094 0 C 33.515625 0 33.917969 -0.398438 33.917969 -1.167969 L 33.917969 -8.75 C 33.917969 -9.519531 33.515625 -9.917969 32.746094 -9.917969 L 15.988281 -9.917969 L 15.988281 -15.046875 L 30.46875 -15.046875 C 31.238281 -15.046875 31.636719 -15.476562 31.636719 -16.21875 L 31.636719 -23.226562 C 31.636719 -23.996094 31.238281 -24.398438 30.46875 -24.398438 L 15.988281 -24.398438 L 15.988281 -33.859375 L 32.746094 -33.859375 C 33.515625 -33.859375 33.917969 -34.257812 33.917969 -35.027344 L 33.917969 -42.609375 C 33.917969 -43.378906 33.515625 -43.777344 32.746094 -43.777344 L 5.5 -43.777344 C 4.730469 -43.777344 4.332031 -43.378906 4.332031 -42.609375 L 4.332031 -1.167969 C 4.332031 -0.398438 4.730469 0 5.5 0 Z M 32.746094 0 "/></g></g></g><g fill="#ffffff" fill-opacity="1"><g transform="translate(181.028931, 89.414276)"><g><path d="M 14.820312 0 C 15.589844 0 15.988281 -0.398438 15.988281 -1.167969 L 15.988281 -42.609375 C 15.988281 -43.378906 15.589844 -43.777344 14.820312 -43.777344 L 5.5 -43.777344 C 4.730469 -43.777344 4.332031 -43.378906 4.332031 -42.609375 L 4.332031 -1.167969 C 4.332031 -0.398438 4.730469 0 5.5 0 Z M 14.820312 0 "/></g></g></g><g fill="#ffffff" fill-opacity="1"><g transform="translate(211.910747, 89.414276)"><g><path d="M 26.277344 1.167969 C 34.800781 1.167969 41.667969 -1.996094 45.714844 -7.523438 C 46 -7.867188 46.113281 -8.292969 46.113281 -8.808594 L 46.113281 -23.226562 C 46.113281 -23.996094 45.714844 -24.398438 44.945312 -24.398438 L 27.789062 -24.398438 C 27.019531 -24.398438 26.621094 -23.996094 26.621094 -23.226562 L 26.621094 -16.21875 C 26.621094 -15.476562 27.019531 -15.046875 27.789062 -15.046875 L 35.484375 -15.046875 L 35.484375 -12.65625 C 33.375 -10.203125 30.183594 -8.75 26.277344 -8.75 C 19.039062 -8.75 14.25 -13.765625 14.25 -21.890625 C 14.25 -29.640625 19.039062 -34.429688 26.277344 -34.429688 C 30.410156 -34.429688 33.746094 -32.863281 35.910156 -30.238281 C 36.367188 -29.640625 36.878906 -29.527344 37.480469 -29.953125 L 45.175781 -35.085938 C 45.828125 -35.539062 45.945312 -36.082031 45.460938 -36.652344 C 41.269531 -41.839844 34.542969 -44.945312 26.277344 -44.945312 C 12.027344 -44.945312 2.566406 -35.96875 2.566406 -21.890625 C 2.566406 -7.808594 12.027344 1.167969 26.277344 1.167969 Z M 26.277344 1.167969 "/></g></g></g><g fill="#ffffff" fill-opacity="1"><g transform="translate(271.853484, 89.414276)"><g><path d="M 32.746094 0 C 33.515625 0 33.917969 -0.398438 33.917969 -1.167969 L 33.917969 -8.75 C 33.917969 -9.519531 33.515625 -9.917969 32.746094 -9.917969 L 15.988281 -9.917969 L 15.988281 -15.046875 L 30.46875 -15.046875 C 31.238281 -15.046875 31.636719 -15.476562 31.636719 -16.21875 L 31.636719 -23.226562 C 31.636719 -23.996094 31.238281 -24.398438 30.46875 -24.398438 L 15.988281 -24.398438 L 15.988281 -33.859375 L 32.746094 -33.859375 C 33.515625 -33.859375 33.917969 -34.257812 33.917969 -35.027344 L 33.917969 -42.609375 C 33.917969 -43.378906 33.515625 -43.777344 32.746094 -43.777344 L 5.5 -43.777344 C 4.730469 -43.777344 4.332031 -43.378906 4.332031 -42.609375 L 4.332031 -1.167969 C 4.332031 -0.398438 4.730469 0 5.5 0 Z M 32.746094 0 "/></g></g></g><g fill="#ffffff" fill-opacity="1"><g transform="translate(319.659013, 89.414276)"><g><path d="M 14.480469 0 C 15.25 0 15.648438 -0.398438 15.648438 -1.167969 L 15.648438 -22.058594 L 39.871094 0 C 41.695312 1.679688 43.007812 0.941406 43.007812 -1.054688 L 43.007812 -42.609375 C 43.007812 -43.378906 42.609375 -43.777344 41.839844 -43.777344 L 32.917969 -43.777344 C 32.148438 -43.777344 31.75 -43.378906 31.75 -42.609375 L 31.75 -22.457031 L 7.238281 -44.0625 C 5.613281 -45.488281 4.390625 -44.773438 4.390625 -42.78125 L 4.390625 -1.167969 C 4.390625 -0.398438 4.789062 0 5.558594 0 Z M 14.480469 0 "/></g></g></g><g fill="#ffffff" fill-opacity="1"><g transform="translate(138.023071, 108.313213)"><g><path d="M 5.457031 0.355469 C 7.988281 0.355469 10.695312 -0.625 10.695312 -3.742188 C 10.695312 -6.222656 8.964844 -7.292969 7.378906 -8.023438 C 5.796875 -8.753906 4.542969 -9.144531 4.542969 -9.945312 C 4.542969 -10.546875 5.132812 -10.746094 5.953125 -10.746094 C 6.753906 -10.746094 7.769531 -10.546875 8.640625 -10.25 C 8.859375 -10.171875 9.015625 -10.269531 9.085938 -10.476562 L 9.730469 -12.671875 C 9.796875 -12.90625 9.730469 -13.042969 9.503906 -13.113281 C 8.285156 -13.488281 6.855469 -13.722656 5.832031 -13.722656 C 3.332031 -13.722656 0.921875 -12.617188 0.921875 -9.695312 C 0.921875 -7.605469 2.261719 -6.5625 3.8125 -5.761719 C 5.378906 -4.953125 7.058594 -4.472656 7.058594 -3.585938 C 7.058594 -2.90625 6.394531 -2.652344 5.472656 -2.652344 C 4.507812 -2.652344 3.230469 -2.925781 2.089844 -3.296875 C 1.871094 -3.367188 1.714844 -3.316406 1.636719 -3.082031 L 0.871094 -0.75 C 0.800781 -0.511719 0.886719 -0.375 1.121094 -0.304688 C 2.742188 0.15625 4.132812 0.355469 5.457031 0.355469 Z M 5.457031 0.355469 "/></g></g></g><g fill="#ffffff" fill-opacity="1"><g transform="translate(163.699695, 108.313213)"><g><path d="M 8.023438 0.355469 C 12.382812 0.355469 15.289062 -2.382812 15.289062 -6.683594 C 15.289062 -10.980469 12.382812 -13.722656 8.023438 -13.722656 C 3.671875 -13.722656 0.785156 -10.980469 0.785156 -6.683594 C 0.785156 -2.382812 3.671875 0.355469 8.023438 0.355469 Z M 8.023438 -2.855469 C 5.8125 -2.855469 4.351562 -4.316406 4.351562 -6.683594 C 4.351562 -9.050781 5.8125 -10.511719 8.023438 -10.511719 C 10.25 -10.511719 11.730469 -9.050781 11.730469 -6.683594 C 11.730469 -4.316406 10.25 -2.855469 8.023438 -2.855469 Z M 8.023438 -2.855469 "/></g></g></g><g fill="#ffffff" fill-opacity="1"><g transform="translate(194.035781, 108.313213)"><g><path d="M 8.910156 0 C 9.144531 0 9.269531 -0.121094 9.269531 -0.355469 L 9.269531 -2.671875 C 9.269531 -2.90625 9.144531 -3.027344 8.910156 -3.027344 L 4.882812 -3.027344 L 4.882812 -13.011719 C 4.882812 -13.246094 4.761719 -13.367188 4.523438 -13.367188 L 1.679688 -13.367188 C 1.445312 -13.367188 1.324219 -13.246094 1.324219 -13.011719 L 1.324219 -0.355469 C 1.324219 -0.121094 1.445312 0 1.679688 0 Z M 8.910156 0 "/></g></g></g><g fill="#ffffff" fill-opacity="1"><g transform="translate(217.930334, 108.313213)"><g><path d="M 7.230469 0.355469 C 10.511719 0.355469 13.28125 -1.054688 13.28125 -4.507812 L 13.28125 -13.011719 C 13.28125 -13.246094 13.148438 -13.367188 12.921875 -13.367188 L 9.980469 -13.367188 C 9.746094 -13.367188 9.625 -13.246094 9.625 -13.011719 L 9.625 -5.457031 C 9.625 -3.621094 8.808594 -2.855469 7.230469 -2.855469 C 5.683594 -2.855469 4.847656 -3.621094 4.847656 -5.457031 L 4.847656 -13.011719 C 4.847656 -13.246094 4.726562 -13.367188 4.492188 -13.367188 L 1.550781 -13.367188 C 1.324219 -13.367188 1.191406 -13.246094 1.191406 -13.011719 L 1.191406 -4.507812 C 1.191406 -1.054688 4.046875 0.355469 7.230469 0.355469 Z M 7.230469 0.355469 "/></g></g></g><g fill="#ffffff" fill-opacity="1"><g transform="translate(246.649518, 108.313213)"><g><path d="M 6.632812 0 C 6.855469 0 6.988281 -0.121094 6.988281 -0.355469 L 6.988281 -10.339844 L 9.675781 -10.339844 C 9.910156 -10.339844 10.035156 -10.460938 10.035156 -10.695312 L 10.035156 -13.011719 C 10.035156 -13.246094 9.910156 -13.367188 9.675781 -13.367188 L 0.714844 -13.367188 C 0.480469 -13.367188 0.355469 -13.246094 0.355469 -13.011719 L 0.355469 -10.695312 C 0.355469 -10.460938 0.480469 -10.339844 0.714844 -10.339844 L 3.402344 -10.339844 L 3.402344 -0.355469 C 3.402344 -0.121094 3.53125 0 3.757812 0 Z M 6.632812 0 "/></g></g></g><g fill="#ffffff" fill-opacity="1"><g transform="translate(271.309064, 108.313213)"><g><path d="M 4.523438 0 C 4.761719 0 4.882812 -0.121094 4.882812 -0.355469 L 4.882812 -13.011719 C 4.882812 -13.246094 4.761719 -13.367188 4.523438 -13.367188 L 1.679688 -13.367188 C 1.445312 -13.367188 1.324219 -13.246094 1.324219 -13.011719 L 1.324219 -0.355469 C 1.324219 -0.121094 1.445312 0 1.679688 0 Z M 4.523438 0 "/></g></g></g><g fill="#ffffff" fill-opacity="1"><g transform="translate(291.769879, 108.313213)"><g><path d="M 8.023438 0.355469 C 12.382812 0.355469 15.289062 -2.382812 15.289062 -6.683594 C 15.289062 -10.980469 12.382812 -13.722656 8.023438 -13.722656 C 3.671875 -13.722656 0.785156 -10.980469 0.785156 -6.683594 C 0.785156 -2.382812 3.671875 0.355469 8.023438 0.355469 Z M 8.023438 -2.855469 C 5.8125 -2.855469 4.351562 -4.316406 4.351562 -6.683594 C 4.351562 -9.050781 5.8125 -10.511719 8.023438 -10.511719 C 10.25 -10.511719 11.730469 -9.050781 11.730469 -6.683594 C 11.730469 -4.316406 10.25 -2.855469 8.023438 -2.855469 Z M 8.023438 -2.855469 "/></g></g></g><g fill="#ffffff" fill-opacity="1"><g transform="translate(322.10597, 108.313213)"><g><path d="M 4.421875 0 C 4.65625 0 4.777344 -0.121094 4.777344 -0.355469 L 4.777344 -6.734375 L 12.175781 0 C 12.730469 0.511719 13.132812 0.289062 13.132812 -0.320312 L 13.132812 -13.011719 C 13.132812 -13.246094 13.011719 -13.367188 12.773438 -13.367188 L 10.050781 -13.367188 C 9.816406 -13.367188 9.695312 -13.246094 9.695312 -13.011719 L 9.695312 -6.855469 L 2.210938 -13.453125 C 1.714844 -13.890625 1.339844 -13.671875 1.339844 -13.0625 L 1.339844 -0.355469 C 1.339844 -0.121094 1.460938 0 1.695312 0 Z M 4.421875 0 "/></g></g></g><g fill="#ffffff" fill-opacity="1"><g transform="translate(350.825159, 108.313213)"><g><path d="M 5.457031 0.355469 C 7.988281 0.355469 10.695312 -0.625 10.695312 -3.742188 C 10.695312 -6.222656 8.964844 -7.292969 7.378906 -8.023438 C 5.796875 -8.753906 4.542969 -9.144531 4.542969 -9.945312 C 4.542969 -10.546875 5.132812 -10.746094 5.953125 -10.746094 C 6.753906 -10.746094 7.769531 -10.546875 8.640625 -10.25 C 8.859375 -10.171875 9.015625 -10.269531 9.085938 -10.476562 L 9.730469 -12.671875 C 9.796875 -12.90625 9.730469 -13.042969 9.503906 -13.113281 C 8.285156 -13.488281 6.855469 -13.722656 5.832031 -13.722656 C 3.332031 -13.722656 0.921875 -12.617188 0.921875 -9.695312 C 0.921875 -7.605469 2.261719 -6.5625 3.8125 -5.761719 C 5.378906 -4.953125 7.058594 -4.472656 7.058594 -3.585938 C 7.058594 -2.90625 6.394531 -2.652344 5.472656 -2.652344 C 4.507812 -2.652344 3.230469 -2.925781 2.089844 -3.296875 C 1.871094 -3.367188 1.714844 -3.316406 1.636719 -3.082031 L 0.871094 -0.75 C 0.800781 -0.511719 0.886719 -0.375 1.121094 -0.304688 C 2.742188 0.15625 4.132812 0.355469 5.457031 0.355469 Z M 5.457031 0.355469 "/></g></g></g></svg>