<svg xmlns="http://www.w3.org/2000/svg" xmlns:xlink="http://www.w3.org/1999/xlink" width="500" zoomAndPan="magnify" viewBox="0 0 375 374.999991" height="500" preserveAspectRatio="xMidYMid meet" version="1.0"><defs><clipPath id="4c082e00ca"><path d="M 23.125 0 L 337.375 0 L 337.375 375 L 23.125 375 Z M 23.125 0 " clip-rule="nonzero"/></clipPath></defs><g clip-path="url(#4c082e00ca)"><path fill="#1b1f24" d="M 133.824219 187.472656 L 108.742188 162.390625 L 74.027344 127.734375 L 150.410156 51.351562 L 235.628906 136.570312 L 261.109375 162.046875 L 286.589844 136.570312 L 312.011719 111.089844 L 337.492188 85.664062 L 312.011719 60.1875 L 251.875 0.046875 L 226.453125 25.527344 L 286.589844 85.664062 L 261.109375 111.089844 L 150.410156 0.390625 L 124.988281 25.871094 L 23.125 127.734375 L 48.605469 153.15625 L 82.921875 187.472656 L 48.605469 221.785156 L 23.125 247.265625 L 48.605469 272.746094 L 124.988281 349.074219 L 150.410156 374.550781 L 175.890625 349.074219 L 261.109375 263.855469 L 286.589844 289.335938 L 226.453125 349.472656 L 251.875 374.953125 L 312.011719 314.757812 L 337.492188 289.335938 L 312.011719 263.855469 L 286.589844 238.429688 L 261.109375 212.953125 L 235.628906 238.429688 L 150.410156 323.648438 L 74.027344 247.265625 L 108.742188 212.550781 Z M 235.628906 187.472656 L 210.207031 212.953125 L 150.410156 272.746094 L 124.988281 247.265625 L 184.726562 187.472656 L 124.988281 127.734375 L 150.410156 102.253906 L 210.207031 162.046875 Z M 235.628906 187.472656 " fill-opacity="1" fill-rule="evenodd"/></g></svg>